#!OML:ASF I:\Actors\actors\Patient Classification 2\Patient 1\Session 1\actor1.ASF
:FULLY-SPECIFIED
:DEGREES
459
root -0.00548793 18.6572 5.29138 14.2064 18.7874 -3.54283
lowerback 27.5592 1.28909 3.78138
upperback 0.270191 3.00086 0.58802
thorax -15.0144 1.0796 -2.68086
lowerneck -17.5149 -2.37873 -4.26676
upperneck -5.3372 -2.30546 5.12907
head 1.41099 -0.904723 2.27634
rclavicle -1.45113e-014 -8.74653e-015
rhumerus 18.7552 12.8817 -64.6177
rradius 132.638
rwrist 12.1188
rhand 20.1742 -56.7631
rfingers 7.12502
rthumb 44.6973 -80.381
lclavicle -1.45113e-014 -8.74653e-015
lhumerus 15.4334 -26.1811 72.4332
lradius 133.746
lwrist -10.0732
lhand -6.492 -13.3533
lfingers 7.12502
lthumb 19.3593 15.703
rfemur -5.64202 -11.6281 17.7585
rtibia -6.36111e-015
rfoot -16.7692 -16.4172
rtoes -12.425
lfemur -34.0341 -8.87036 -9.52307
ltibia 35.7751
lfoot -15.9303 1.7395
ltoes -56.78
460
root 0.0266674 18.6963 5.29037 14.1128 18.9813 -3.6669
lowerback 27.8775 1.29925 3.84951
upperback -0.171266 3.04047 0.442146
thorax -14.9005 1.09237 -2.79601
lowerneck -17.4469 -2.36293 -3.81766
upperneck -5.70009 -2.35148 4.7545
head 1.26046 -0.945136 2.06294
rclavicle 4.74101e-014 3.51849e-014
rhumerus 21.075 11.2582 -64.1058
rradius 129.964
rwrist 12.1139
rhand 18.9133 -56.1705
rfingers 7.12502
rthumb 43.5214 -80.2296
lclavicle 4.74101e-014 3.51849e-014
lhumerus 18.6925 -24.7781 70.7697
lradius 133.135
lwrist -10.6142
lhand -6.7916 -13.5611
lfingers 7.12502
lthumb 19.0712 15.5239
rfemur -5.52381 -11.7661 17.7922
rtibia -1.43125e-014
rfoot -16.8017 -16.4879
rtoes -11.5161
lfemur -33.9033 -8.72264 -9.47972
ltibia 35.5702
lfoot -15.0772 1.43078
ltoes -56.8253
461
root 0.057873 18.7375 5.28245 14.132 19.0113 -3.78269
lowerback 28.0754 1.30313 3.97166
upperback -0.196118 3.06572 0.256223
thorax -15.0058 1.08266 -3.08163
lowerneck -17.2395 -2.321 -3.55059
upperneck -6.43076 -2.32077 4.68798
head 0.971699 -0.937677 1.99188
rclavicle 1.04958e-013 -3.598e-014
rhumerus 23.3422 9.62184 -63.917
rradius 126.911
rwrist 11.9701
rhand 17.8755 -55.6242
rfingers 7.12502
rthumb 42.5511 -80.0269
lclavicle 1.04958e-013 -3.598e-014
lhumerus 22.1278 -23.117 69.4583
lradius 132.135
lwrist -11.1541
lhand -7.10571 -14.2136
lfingers 7.12502
lthumb 18.7692 14.9009
rfemur -5.58556 -11.7509 17.8076
rtibia -6.36111e-015
rfoot -16.7171 -16.5977
rtoes -11.026
lfemur -33.9051 -8.43344 -9.45378
ltibia 35.3943
lfoot -14.2488 0.994169
ltoes -56.9802
462
root 0.0854422 18.7781 5.27088 14.1772 18.9605 -3.88403
lowerback 28.8856 1.24804 4.11015
upperback -0.568659 3.03971 -0.0529791
thorax -15.8109 1.00991 -3.52568
lowerneck -17.1294 -2.27585 -3.49221
upperneck -6.86258 -2.2533 5.08682
head 0.81439 -0.896319 2.11783
rclavicle -2.01766e-014 0
rhumerus 24.753 8.85004 -64.0918
rradius 123.552
rwrist 13.6483
rhand 17.462 -55.5559
rfingers 7.12502
rthumb 42.1638 -80.0908
lclavicle -2.01766e-014 0
lhumerus 24.7838 -21.4345 68.8439
lradius 130.704
lwrist -11.8847
lhand -6.95012 -15.4526
lfingers 7.12502
lthumb 18.9188 13.6474
rfemur -5.69891 -11.6579 17.8198
rtibia -9.54166e-015
rfoot -16.5832 -16.7401
rtoes -10.5854
lfemur -33.9492 -8.15788 -9.41617
ltibia 35.245
lfoot -13.3129 0.484649
ltoes -56.814
463
root 0.110307 18.8138 5.25761 14.2508 18.8718 -3.89393
lowerback 28.9403 1.36576 3.65343
upperback -0.379781 3.04218 -0.00758807
thorax -15.64 1.05768 -3.22221
lowerneck -17.2955 -2.1896 -3.44612
upperneck -7.65325 -2.10346 5.13265
head 0.571815 -0.818261 2.13275
rclavicle -2.64384e-014 -6.26172e-015
rhumerus 26.7032 8.13927 -63.936
rradius 120.009
rwrist 14.5616
rhand 16.972 -56.0241
rfingers 7.12502
rthumb 41.7045 -80.7124
lclavicle -2.64384e-014 -6.26172e-015
lhumerus 27.5707 -19.326 69.0724
lradius 128.615
lwrist -13.2782
lhand -7.04826 -16.9104
lfingers 7.12502
lthumb 18.8244 12.1987
rfemur -5.82048 -11.5486 17.7457
rtibia 4.77083e-015
rfoot -16.5876 -16.8685
rtoes -9.7604
lfemur -33.995 -8.01323 -9.43608
ltibia 35.1196
lfoot -12.4221 0.0612801
ltoes -56.4245
464
root 0.134976 18.8401 5.24368 14.3201 18.7559 -3.87076
lowerback 29.4644 1.45368 3.29682
upperback -0.516943 3.04542 -0.0890994
thorax -16.0667 1.06509 -3.14112
lowerneck -17.4072 -2.1599 -3.31828
upperneck -7.88972 -2.06981 5.23301
head 0.509881 -0.800399 2.14495
rclavicle -3.8763e-015 5.71009e-014
rhumerus 27.4306 8.02394 -64.1235
rradius 116.942
rwrist 15.0157
rhand 15.0253 -56.7855
rfingers 7.12502
rthumb 39.8754 -82.049
lclavicle -3.8763e-015 5.71009e-014
lhumerus 29.2744 -17.7336 69.7971
lradius 126.122
lwrist -15.5302
lhand -7.33651 -17.8087
lfingers 7.12502
lthumb 18.5472 11.3271
rfemur -5.91989 -11.4204 17.6295
rtibia 1.11319e-014
rfoot -16.7661 -16.9244
rtoes -8.81737
lfemur -34.0189 -7.91571 -9.5035
ltibia 35.0085
lfoot -11.822 -0.156002
ltoes -56.2504
465
root 0.162192 18.8557 5.23166 14.4352 18.6247 -3.87826
lowerback 29.3357 1.61551 3.02082
upperback -0.280379 3.15304 -0.0712338
thorax -15.7334 1.1491 -3.00013
lowerneck -17.643 -2.31443 -3.72067
upperneck -8.09225 -2.1796 5.59077
head 0.500837 -0.834135 2.33207
rclavicle 8.54774e-015 -4.37326e-015
rhumerus 28.0981 8.11056 -64.0496
rradius 114.619
rwrist 14.7612
rhand 14.9729 -59.3099
rfingers 7.12502
rthumb 39.8261 -84.5881
lclavicle 8.54774e-015 -4.37326e-015
lhumerus 30.7815 -16.6672 70.731
lradius 123.367
lwrist -16.5098
lhand -7.56673 -17.3521
lfingers 7.12502
lthumb 18.3257 11.8046
rfemur -6.07396 -11.2721 17.5543
rtibia -1.11319e-014
rfoot -16.9315 -16.9622
rtoes -8.30534
lfemur -34.0911 -7.73078 -9.59174
ltibia 34.9198
lfoot -11.5112 -0.355141
ltoes -56.1265
466
root 0.19228 18.8596 5.22254 14.6825 18.4702 -3.87088
lowerback 29.4693 1.66512 2.91396
upperback -0.342291 3.16466 -0.201194
thorax -15.8679 1.15095 -3.09597
lowerneck -17.878 -2.42446 -4.03751
upperneck -7.71769 -2.27339 6.01385
head 0.685262 -0.859998 2.52901
rclavicle -3.74212e-014 2.0773e-014
rhumerus 26.9202 8.75043 -64.2618
rradius 113.953
rwrist 14.14
rhand 16.6947 -61.0079
rfingers 7.12502
rthumb 41.4444 -85.7814
lclavicle -3.74212e-014 2.0773e-014
lhumerus 31.0423 -15.9619 71.5382
lradius 120.985
lwrist -16.0787
lhand -5.8919 -15.4306
lfingers 7.12502
lthumb 19.9363 13.5668
rfemur -6.35914 -11.111 17.4829
rtibia 1.11319e-014
rfoot -17.0811 -16.982
rtoes -8.35472
lfemur -34.2961 -7.56793 -9.71806
ltibia 34.8781
lfoot -11.5284 -0.380986
ltoes -56.0154
467
root 0.223046 18.8546 5.21326 15.0095 18.3147 -3.80596
lowerback 29.1055 1.81507 2.47842
upperback -0.0398252 3.2169 -0.0563565
thorax -15.3676 1.23344 -2.69579
lowerneck -18.0104 -2.46959 -4.40339
upperneck -7.57354 -2.26792 6.14316
head 0.765404 -0.843737 2.64227
rclavicle -1.86858e-014 1.98785e-016
rhumerus 25.8561 9.79245 -63.7383
rradius 114.835
rwrist 13.4481
rhand 21.7735 -60.7971
rfingers 7.12502
rthumb 46.1835 -83.8148
lclavicle -1.86858e-014 1.98785e-016
lhumerus 30.951 -15.2408 72.3786
lradius 119.084
lwrist -14.3876
lhand -3.26682 -12.5265
lfingers 7.12502
lthumb 22.4579 16.1878
rfemur -6.6957 -10.9687 17.3574
rtibia 1.59028e-014
rfoot -17.3948 -16.9163
rtoes -8.44731
lfemur -34.5992 -7.57241 -9.88752
ltibia 34.898
lfoot -11.7734 -0.12229
ltoes -55.8558
468
root 0.25454 18.8433 5.19932 15.3414 18.1913 -3.73377
lowerback 29.1661 1.83904 2.24328
upperback 0.0263114 3.16408 -0.0814546
thorax -15.3324 1.22808 -2.57389
lowerneck -18.0413 -2.48528 -4.57264
upperneck -7.00109 -2.28698 6.31339
head 0.97235 -0.845681 2.73303
rclavicle -1.11419e-013 4.96962e-015
rhumerus 23.8621 10.9354 -63.5989
rradius 116.954
rwrist 12.6265
rhand 26.8007 -61.1422
rfingers 7.12502
rthumb 50.8091 -81.9296
lclavicle -1.11419e-013 4.96962e-015
lhumerus 29.7568 -14.9347 72.4562
lradius 117.898
lwrist -12.7535
lhand -0.315566 -9.52493
lfingers 7.12502
lthumb 25.2881 18.8189
rfemur -7.04085 -10.8624 17.2247
rtibia 1.11319e-014
rfoot -17.7005 -16.799
rtoes -8.33897
lfemur -34.9715 -7.64842 -10.0712
ltibia 34.989
lfoot -12.0688 0.255235
ltoes -55.6209
469
root 0.284637 18.8259 5.17869 15.7267 18.1046 -3.66069
lowerback 28.9075 1.92682 1.91081
upperback 0.325224 3.16764 0.000736699
thorax -14.8827 1.27278 -2.28431
lowerneck -17.8002 -2.50403 -4.7343
upperneck -6.58371 -2.31695 6.4279
head 1.08087 -0.860211 2.80189
rclavicle 1.92821e-014 7.85199e-015
rhumerus 21.9011 11.8773 -63.2869
rradius 120.081
rwrist 11.2786
rhand 26.7909 -62.528
rfingers 7.12502
rthumb 50.8001 -83.3203
lclavicle 1.92821e-014 7.85199e-015
lhumerus 28.3394 -14.9152 72.0303
lradius 117.3
lwrist -12.2887
lhand 2.79599 -7.26489
lfingers 7.12502
lthumb 28.2656 20.6228
rfemur -7.47053 -10.7967 17.1079
rtibia -2.06736e-014
rfoot -17.8305 -16.7138
rtoes -8.38425
lfemur -35.4803 -7.68337 -10.2715
ltibia 35.153
lfoot -12.5286 0.754998
ltoes -55.7144
